<svg version="1.1" id="Layer_1" xmlns="http://www.w3.org/2000/svg" xmlns:xlink="http://www.w3.org/1999/xlink" x="0" y="0" width="331" height="61" viewBox="0 0 331 61" xml:space="preserve"><defs><path id="SVGID_1_" d="M227 33c0 1.5.1 3 .3 4.5 11.6-4 19.8-8.5 25.8-12.8 0 0 3-1.9 5.1-.8-.8 1.1-1.7 2.3-1.8 3.2 0 0-1.4 6.9 1.9 11.3 1.5 2 4.1 3 7.7 3 3.3 0 7.4-.9 12.1-2.5 4.7-1.6 9.4-3.9 14.4-3.7V33c0-18.2-14.7-33-32.7-33C241.7 0 227 14.8 227 33"/></defs><clipPath id="SVGID_2_"><use xlink:href="#SVGID_1_" overflow="visible"/></clipPath><linearGradient id="SVGID_3_" gradientUnits="userSpaceOnUse" x1="-250.066" y1="332.465" x2="-248.383" y2="332.465" gradientTransform="matrix(0 -26.5193 -26.5193 0 9076.513 -6589.577)"><stop offset="0" stop-color="#ffcd3f"/><stop offset=".075" stop-color="#fec134"/><stop offset=".193" stop-color="#fbb429"/><stop offset=".336" stop-color="#faaa21"/><stop offset=".53" stop-color="#f9a51e"/><stop offset="1" stop-color="#f8a41d"/></linearGradient><path clip-path="url(#SVGID_2_)" fill="url(#SVGID_3_)" d="M227 0h65.5v41.4H227z"/><path fill="#706E70" d="M14.1 11.8v9.6H2.9v-9.6H0v23.7h2.9V24.1h11.2v11.4H17V11.8zm30.1 11.9c0 7-5.5 12.3-12.3 12.3-6.8 0-12.3-5.3-12.3-12.3 0-6.8 5.6-12.3 12.3-12.3 6.7-.1 12.3 5.5 12.3 12.3m-2.9 0c0-5.2-3.9-9.6-9.4-9.6s-9.4 4.4-9.4 9.6c0 5.4 4.3 9.6 9.4 9.6 5.1-.1 9.4-4.2 9.4-9.6m8.7 9.1h7.1v2.7H47V11.8h3zm8.8-21h4.9c7.2 0 13.2 3.8 13.2 11.7 0 8.1-5.9 12-13.3 12h-4.8V11.8zm2.9 21h1c6 0 11.1-2.3 11.1-9.1 0-6.9-5.2-9.1-11.1-9.1h-1v18.2zm20.9-18.3v6.7h8.2v2.7h-8.2v11.6h-2.9V11.8h11.4v2.7zM96 29.6l-2.7 5.9h-3.1l11.2-24.7 11.2 24.7h-3.1l-2.7-5.9H96zm5.4-12.3l-4.2 9.6h8.3l-4.1-9.6zm23.6-1c-.9-1.5-2-2.2-3.8-2.2-1.9 0-3.9 1.3-3.9 3.4 0 1.9 1.8 2.8 3.3 3.4l1.7.7c3.3 1.3 5.8 3.2 5.8 7.1 0 4.3-3.3 7.4-7.5 7.4-3.8 0-6.8-2.8-7.3-6.6l3-.6c0 2.6 2 4.5 4.5 4.5s4.3-2.1 4.3-4.6c0-2.5-2-3.6-4-4.5l-1.6-.7c-2.7-1.2-5.1-2.7-5.1-6 0-3.8 3.4-6.1 6.9-6.1 2.6 0 4.8 1.3 6 3.6l-2.3 1.2zm12.6 19.2h-2.9v-21h-5.6v-2.7h14.1v2.7h-5.6zm16.6-23.7h2.9c4.4 0 8.6 1.2 8.6 6.5 0 1.7-.9 3.7-2.5 4.5v.1c2.8.5 4.7 3.2 4.7 6 0 4.7-4 6.6-8.2 6.6h-5.5V11.8zm2.9 10.5h.7c2.8 0 5-.6 5-4 0-3.3-2.2-3.9-5-3.9h-.8v7.9zm0 10.6h2.2c2.7 0 5.5-.8 5.5-4.2 0-3.3-3.4-4-6-4H157v8.2zm17.3-3.3l-2.7 5.9h-3.1l11.2-24.7L191 35.5h-3.1l-2.7-5.9h-10.8zm5.4-12.3l-4.2 9.6h8.3l-4.1-9.6zm7.7-5.5h3.4l5.7 10.1 5.8-10.1h3.3l-7.6 13.4v10.3h-3V25.2zM82.9 3c-.6-.6-1.3-1-2.2-1-1.6 0-2.9 1.4-2.9 3s1.3 3 2.9 3c.8 0 1.6-.4 2.2-1v1c-.6.4-1.4.7-2.1.7-2 0-3.7-1.6-3.7-3.7s1.7-3.7 3.7-3.7c.8 0 1.5.2 2.1.7v1zm4.2-1.6h.8v7.2h-.8zm7 7.2h-.8V2.2h-1.8v-.8h4.3v.8h-1.7zm4.7-7.2h.9l1.8 3.2 1.8-3.2h.9l-2.3 4.1v3.1h-.8V5.5zM120.6 5c0 2.1-1.7 3.7-3.7 3.7s-3.7-1.6-3.7-3.7 1.7-3.7 3.7-3.7c2.1 0 3.7 1.7 3.7 3.7M114 5c0 1.6 1.3 3 2.9 3 1.6 0 2.9-1.4 2.9-3s-1.3-3-2.9-3c-1.6.1-2.9 1.4-2.9 3m11.3-2.8v2.1h2.4V5h-2.4v3.6h-.8V1.4h3.3v.8z"/><path fill="#FFF" d="M259.7 7c-.3 0-.5-.3-.5-.6s.3-.6.6-.5c.3 0 .5.3.5.6-.1.3-.3.5-.6.5zm0 5.8c-.3 0-.5-.3-.5-.6s.3-.6.6-.5c.3 0 .5.3.5.6-.1.3-.3.5-.6.5zm0 5.7c-.3 0-.5-.3-.5-.6s.3-.5.6-.5.5.3.5.6c-.1.3-.3.5-.6.5zm0 5.9c-.3 0-.5-.3-.5-.6s.3-.5.6-.5.5.3.5.6c-.1.2-.3.5-.6.5zm26.4 11.9c-.3-.1-.5-.3-.4-.6 0-.3.3-.5.6-.5s.5.3.5.6c0 .1-.1.3-.2.4 0 0-.4.1-.5.1m-.4-5.2c0-.3.2-.6.5-.6s.6.2.6.5-.2.6-.5.6-.6-.2-.6-.5m-.3-2.3c-.1-.3.2-.6.5-.7.3-.1.6.1.7.5.1.3-.2.6-.5.7h-.1c-.3 0-.5-.2-.6-.5m-.5-2.2c-.1-.3.1-.6.4-.7.3-.1.6.1.7.4.1.3-.1.6-.4.7h-.1c-.3 0-.5-.2-.6-.4m-.7-2.2c-.1-.3 0-.6.3-.7.3-.1.6 0 .7.3.1.3 0 .6-.3.7h-.2c-.2.1-.4-.1-.5-.3m-.8-2.2c-.1-.3 0-.6.3-.8.3-.1.6 0 .8.3.1.3 0 .6-.3.8-.1 0-.2.1-.2.1-.3 0-.5-.1-.6-.4m-1.1-2c-.2-.3-.1-.6.2-.8.3-.2.6-.1.8.2.2.3.1.6-.2.8-.1.1-.2.1-.3.1-.2 0-.4-.1-.5-.3m-1.2-1.9c-.2-.3-.1-.6.1-.8.3-.2.6-.1.8.1.2.3.1.6-.1.8-.1.1-.2.1-.3.1-.2 0-.4-.1-.5-.2m-1.4-1.9c-.2-.2-.2-.6.1-.8.2-.2.6-.2.8.1.2.2.2.6-.1.8-.1.1-.2.1-.4.1-.1 0-.3 0-.4-.2m-1.5-1.6c-.2-.2-.2-.6 0-.8.2-.2.6-.2.8 0 .2.2.2.6 0 .8-.1.1-.3.2-.4.2-.2-.1-.3-.1-.4-.2m-1.7-1.6c-.2-.2-.3-.6-.1-.8.2-.2.6-.3.8-.1.2.2.3.6.1.8-.1.1-.3.2-.4.2-.2 0-.3 0-.4-.1m-1.8-1.4c-.3-.2-.3-.5-.1-.8.2-.3.5-.3.8-.1.3.2.3.5.1.8-.1.2-.3.2-.5.2-.1 0-.2 0-.3-.1m-1.9-1.2c-.3-.2-.4-.5-.2-.8.2-.3.5-.4.8-.2.3.2.4.5.2.8-.1.2-.3.3-.5.3-.1-.1-.3-.1-.3-.1m-2.1-1.1c-.3-.1-.4-.5-.3-.8.1-.3.5-.4.8-.3.3.1.4.5.3.8-.1.2-.3.3-.5.3h-.3m-2.1-.9c-.3-.1-.4-.4-.3-.7.1-.3.4-.5.7-.3.3.1.4.4.3.7-.1.2-.3.4-.5.4 0 0-.1-.1-.2-.1m-2.1-.7c-.3-.1-.5-.4-.4-.7.1-.3.4-.5.7-.4.3.1.5.4.4.7-.1.3-.3.4-.6.4h-.1m-2.3-.5c-.3-.1-.5-.3-.5-.7.1-.3.3-.5.7-.5.3.1.5.3.5.7-.1.3-.3.5-.7.5.1 0 .1 0 0 0m-2.2-.3c-.3 0-.5-.3-.5-.6s.3-.6.6-.5c.3 0 .5.3.5.6s-.3.5-.6.5zm-28.9 24.5c-.3 0-.5-.3-.5-.6s.3-.5.6-.5.5.3.5.6-.3.5-.6.5zm.2-2.3c-.3-.1-.5-.4-.5-.7.1-.3.3-.5.7-.5.3.1.5.4.5.7-.1.3-.3.5-.7.5.1 0 .1 0 0 0m.5-2.3c-.3-.1-.5-.4-.4-.7.1-.3.4-.5.7-.4.3.1.5.4.4.7-.1.3-.3.4-.5.4h-.2m.6-2.3c-.3-.1-.4-.4-.3-.7.1-.3.4-.5.7-.3.3.1.4.4.3.7-.1.2-.3.4-.5.4 0-.1-.1-.1-.2-.1m.9-2.2c-.3-.1-.4-.5-.3-.8.1-.3.5-.4.7-.3.3.1.4.5.3.8-.1.2-.3.3-.5.3-.1.1-.2.1-.2 0m1-2.1c-.3-.2-.4-.5-.2-.8.2-.3.5-.4.8-.2.3.2.4.5.2.8-.1.2-.3.3-.5.3-.1 0-.2 0-.3-.1m1.2-2c-.3-.2-.3-.5-.1-.8.2-.3.5-.3.8-.1.3.2.3.5.1.8-.1.2-.3.2-.5.2-.1 0-.2 0-.3-.1m1.4-1.9c-.2-.2-.3-.6-.1-.8.2-.2.6-.3.8-.1.2.2.3.6.1.8-.1.1-.3.2-.4.2-.2 0-.3 0-.4-.1m1.5-1.7c-.2-.2-.2-.6 0-.8.2-.2.6-.2.8 0 .2.2.2.6 0 .8-.1.1-.3.2-.4.2-.1-.1-.3-.1-.4-.2m1.7-1.7c-.2-.2-.2-.6.1-.8.2-.2.6-.2.8.1.2.2.2.6-.1.8-.1.1-.2.1-.4.1-.1 0-.3 0-.4-.2m1.8-1.4c-.2-.3-.1-.6.1-.8.3-.2.6-.1.8.1.2.3.1.6-.1.8-.1.1-.2.1-.3.1-.2 0-.4-.1-.5-.2m2-1.4c-.2-.3-.1-.6.2-.8.3-.1.6-.1.8.2.2.3.1.6-.2.8-.1.1-.2.1-.3.1-.2 0-.4-.1-.5-.3m2-1.1c-.1-.3 0-.6.3-.8.3-.1.6 0 .8.3.1.3 0 .6-.3.8-.1 0-.2.1-.2.1-.3-.1-.5-.2-.6-.4m2.1-.9c-.1-.3 0-.6.3-.7.3-.1.6 0 .7.3.1.3 0 .6-.3.7h-.2c-.2 0-.4-.1-.5-.3m2.2-.8c-.1-.3.1-.6.4-.7.3-.1.6.1.7.4.1.3-.1.6-.4.7h-.2c-.2 0-.4-.1-.5-.4m2.3-.5c-.1-.3.2-.6.5-.7.3-.1.6.1.7.5.1.3-.2.6-.5.7h-.1c-.3-.1-.5-.3-.6-.5m2.3-.4c0-.3.2-.6.5-.6s.6.2.6.5-.2.6-.5.6h-.1c-.2 0-.5-.2-.5-.5m-24.2 29.1c0-.3.2-.5.5-.6.2 0 .3.1.5.2-.1 0-1 .4-1 .4m5.5-2.3c0-.3.2-.5.5-.6.2 0 .3 0 .4.1.1.1-.9.5-.9.5m42.1 5c-.3-.1-.5-.4-.5-.7.1-.3.4-.5.7-.4.3.1.5.4.4.7 0 .1-.1.2-.1.3-.1-.1-.5.1-.5.1m.3-2.2c-.3 0-.5-.3-.5-.6s.3-.5.6-.5.5.3.5.6-.2.5-.6.5c.1 0 0 0 0 0m-.5-5c0-.3.2-.6.5-.6s.6.2.6.5-.2.6-.5.6h-.1c-.2 0-.4-.2-.5-.5m-.3-2.1c-.1-.3.1-.6.4-.7.3-.1.6.1.7.4.1.3-.1.6-.4.7h-.1c-.3 0-.6-.1-.6-.4m-.6-2.1c-.1-.3.1-.6.4-.7.3-.1.6.1.7.4.1.3-.1.6-.4.7h-.2c-.2 0-.4-.1-.5-.4m-.7-2c-.1-.3 0-.6.3-.8.3-.1.6 0 .7.3.1.3 0 .6-.3.8-.1 0-.2.1-.2.1-.2-.1-.4-.2-.5-.4m-1-1.9c-.2-.3-.1-.6.2-.8.3-.2.6-.1.8.2.2.3.1.6-.2.8-.1.1-.2.1-.3.1-.2 0-.4-.1-.5-.3m-1.2-1.8c-.2-.3-.1-.6.1-.8.2-.2.6-.1.8.1.2.3.1.6-.1.8-.1.1-.2.1-.3.1-.2 0-.4-.1-.5-.2m-1.3-1.7c-.2-.2-.2-.6 0-.8.2-.2.6-.2.8 0 .2.2.2.6 0 .8-.1.1-.2.1-.4.1-.1.1-.3 0-.4-.1m-1.5-1.5c-.2-.2-.3-.6 0-.8.2-.2.6-.2.8 0 .2.2.3.6 0 .8-.1.1-.3.2-.4.2-.2-.1-.3-.1-.4-.2m-1.7-1.4c-.3-.2-.3-.5-.1-.8.2-.3.5-.3.8-.1.3.2.3.5.1.8-.1.2-.3.2-.5.2-.1 0-.2 0-.3-.1m-1.8-1.2c-.3-.2-.4-.5-.2-.8.2-.3.5-.4.8-.2.3.2.4.5.2.8-.1.2-.3.3-.5.3-.1 0-.2 0-.3-.1m-1.9-1c-.3-.1-.4-.5-.3-.8.1-.3.5-.4.7-.3.3.1.4.5.3.8-.1.2-.3.3-.5.3 0 .1-.1.1-.2 0m-2-.7c-.3-.1-.5-.4-.4-.7.1-.3.4-.5.7-.4.3.1.5.4.4.7-.1.2-.3.4-.5.4h-.2m-2-.6c-.3-.1-.5-.4-.4-.7.1-.3.4-.5.7-.4.3.1.5.4.4.7-.1.3-.3.5-.6.5l-.1-.1m-2.2-.3c-.3 0-.5-.3-.5-.6s.3-.5.6-.5.5.3.5.6-.2.5-.6.5zm-23.1 18.8c-.3 0-.5-.3-.5-.6s.3-.5.6-.5.5.3.5.6-.2.5-.6.5zm.3-2.2c-.3-.1-.5-.4-.4-.7.1-.3.4-.5.7-.4.3.1.5.4.4.7-.1.3-.3.5-.6.5 0-.1 0-.1-.1-.1m.5-2.1c-.3-.1-.5-.4-.4-.7.1-.3.4-.5.7-.4.3.1.5.4.4.7-.1.2-.3.4-.5.4h-.2m.8-2.1c-.3-.1-.4-.5-.3-.8.1-.3.5-.4.7-.3.3.1.4.5.3.8-.1.2-.3.3-.5.3h-.2m.9-2c-.3-.2-.4-.5-.2-.8.2-.3.5-.4.8-.2.3.2.4.5.2.8-.1.2-.3.3-.5.3-.1 0-.2-.1-.3-.1m1.2-1.9c-.3-.2-.3-.5-.1-.8.2-.3.5-.3.8-.1.3.2.3.5.1.8-.1.2-.3.2-.5.2-.1 0-.2 0-.3-.1m1.3-1.8c-.2-.2-.3-.6 0-.8.2-.2.6-.3.8 0 .2.2.2.6 0 .8-.1.1-.3.2-.4.2-.1 0-.3-.1-.4-.2m1.5-1.6c-.2-.2-.2-.6 0-.8.2-.2.6-.2.8 0 .2.2.2.6 0 .8-.1.1-.2.2-.4.2-.1 0-.3-.1-.4-.2m1.7-1.4c-.2-.3-.1-.6.1-.8.3-.2.6-.1.8.1.2.3.1.6-.1.8-.1.1-.2.1-.3.1-.2 0-.4-.1-.5-.2m1.8-1.3c-.2-.3-.1-.6.2-.8.3-.2.6-.1.8.2.2.3.1.6-.2.8-.1.1-.2.1-.3.1-.2 0-.4-.1-.5-.3m1.9-1c-.1-.3 0-.6.3-.8.3-.1.6 0 .7.3.1.3 0 .6-.3.8-.1 0-.2.1-.2.1-.2-.1-.4-.2-.5-.4m2.1-.9c-.1-.3.1-.6.4-.7.3-.1.6.1.7.4.1.3-.1.6-.4.7h-.2c-.2 0-.5-.2-.5-.4m2.1-.6c-.1-.3.1-.6.4-.7.3-.1.6.1.7.4.1.3-.1.6-.4.7h-.1c-.3 0-.6-.2-.6-.4m2.1-.4c0-.3.2-.6.5-.6s.6.2.6.5-.2.6-.5.6h-.1c-.2 0-.4-.2-.5-.5m16.5 27.9c-.3-.1-.4-.5-.3-.8.1-.3.5-.4.8-.3.3.1.4.5.3.8-.1.2-.3.3-.5.3-.2.1-.2 0-.3 0m.8-2c-.3-.1-.5-.4-.4-.7.1-.3.4-.5.7-.4.3.1.5.4.4.7-.1.3-.3.4-.5.4h-.2m.5-2.1c-.3 0-.5-.3-.5-.6s.3-.5.6-.5.5.3.5.6c.1.3-.2.5-.6.5zm-.4-4.9c0-.3.2-.6.5-.6s.6.2.6.5-.2.6-.5.6h-.1c-.2 0-.5-.2-.5-.5m-.5-2.1c-.1-.3.1-.6.4-.7.3-.1.6.1.7.4.1.3-.1.6-.4.7h-.2c-.2 0-.4-.2-.5-.4m-.7-2c-.1-.3 0-.6.3-.8.3-.1.6 0 .7.3.1.3 0 .6-.3.8-.1 0-.2.1-.2.1-.2 0-.4-.2-.5-.4m-1-1.8c-.2-.3-.1-.6.2-.8.3-.2.6-.1.8.2.2.3.1.6-.2.8-.1.1-.2.1-.3.1-.2-.1-.4-.2-.5-.3m-1.3-1.7c-.2-.2-.2-.6.1-.8.2-.2.6-.2.8.1.2.2.2.6-.1.8-.1.1-.2.1-.4.1-.1 0-.3-.1-.4-.2m-1.5-1.5c-.2-.2-.3-.6-.1-.8.2-.2.6-.3.8-.1.2.2.3.6.1.8-.1.1-.3.2-.4.2-.1 0-.3 0-.4-.1m-1.6-1.3c-.3-.2-.3-.5-.2-.8.2-.3.5-.3.8-.2.3.2.3.5.2.8-.1.2-.3.3-.5.3-.1 0-.2-.1-.3-.1m-1.9-1c-.3-.1-.4-.5-.3-.8.1-.3.5-.4.7-.3.3.1.4.5.3.8-.1.2-.3.3-.5.3h-.2m-1.9-.8c-.3-.1-.5-.4-.4-.7.1-.3.4-.5.7-.4.3.1.5.4.4.7-.1.2-.3.4-.5.4-.1.1-.2 0-.2 0m-2.1-.4c-.3 0-.5-.3-.5-.6s.3-.5.6-.5.5.3.5.6-.2.5-.6.5c.1 0 0 0 0 0m-16.9 10.9c-.3-.1-.5-.4-.4-.7.1-.3.4-.5.7-.4.3.1.5.4.4.7-.1.2-.3.4-.5.4h-.2m.7-2.1c-.3-.1-.4-.5-.3-.8.1-.3.5-.4.8-.3.3.1.4.5.3.8-.1.2-.3.3-.5.3h-.3m.9-2c-.3-.2-.3-.5-.2-.8.2-.3.5-.3.8-.2.3.2.3.5.2.8-.1.2-.3.3-.5.3-.1 0-.2 0-.3-.1m1.3-1.8c-.2-.2-.3-.6-.1-.8.2-.2.6-.3.8-.1.2.2.3.6.1.8-.1.1-.3.2-.4.2-.2.1-.3 0-.4-.1m1.5-1.6c-.2-.2-.2-.6.1-.8.2-.2.6-.2.8.1.2.2.2.6-.1.8-.1.1-.2.1-.4.1s-.3-.1-.4-.2m1.7-1.4c-.2-.3-.1-.6.2-.8.3-.2.6-.1.8.2.2.3.1.6-.2.8-.1.1-.2.1-.3.1-.3 0-.4-.1-.5-.3m1.8-1.1c-.1-.3 0-.6.3-.8.3-.1.6 0 .8.3.1.3 0 .6-.3.8-.1 0-.2.1-.2.1-.3-.1-.5-.2-.6-.4m2.1-.9c-.1-.3.1-.6.4-.7.3-.1.6.1.7.4.1.3-.1.6-.4.7h-.2c-.3 0-.5-.1-.5-.4m2.1-.5c0-.3.2-.6.5-.6s.6.2.6.5-.2.6-.5.6h-.1c-.3 0-.5-.2-.5-.5m8.2 23c-.2-.2-.2-.6.1-.8.2-.2.6-.2.8.1.2.2.2.6-.1.8-.1.1-.2.1-.4.1-.1.1-.3 0-.4-.2m1.6-1.4c-.2-.2-.3-.6-.1-.8.2-.2.6-.3.8-.1.2.2.3.6.1.8-.1.1-.3.2-.4.2-.2 0-.3 0-.4-.1m1.2-1.7c-.3-.1-.4-.5-.3-.8.1-.3.5-.4.8-.3.3.1.4.5.3.8-.1.2-.3.3-.5.3h-.3m.8-2c-.3-.1-.5-.4-.4-.7.1-.3.4-.5.7-.4.3.1.5.4.4.7-.1.3-.3.5-.6.5 0-.1 0-.1-.1-.1m-.4-4.7c-.1-.3.1-.6.4-.7.3-.1.6.1.7.4.1.3-.1.6-.4.7h-.1c-.3 0-.5-.2-.6-.4m-.6-1.9c-.1-.3 0-.6.3-.8.3-.1.6 0 .8.3.1.3 0 .6-.3.8-.1 0-.2.1-.2.1-.3-.1-.5-.2-.6-.4m-1.1-1.7c-.2-.2-.2-.6.1-.8.2-.2.6-.2.8.1.2.2.2.6-.1.8-.1.1-.2.1-.4.1-.1 0-.3-.1-.4-.2m-1.4-1.5c-.2-.2-.3-.6-.1-.8.2-.2.6-.3.8-.1.2.2.3.6.1.8-.1.1-.3.2-.4.2-.2.1-.3 0-.4-.1m-1.7-1c-.3-.1-.4-.5-.3-.8.1-.3.5-.4.8-.3.3.1.4.5.3.8-.1.2-.3.3-.5.3h-.3m-1.9-.7c-.3-.1-.5-.4-.4-.7.1-.3.4-.5.7-.4.3.1.5.4.4.7-.1.3-.3.4-.6.4h-.1"/><path fill="#0E4C9D" d="M240.8 46.6l1.6-.6.3 1.6c.3 1 .8 2.4 1.7 3.6.1.1.2.3.3.5.7.9 1.7 1.7 2.9 2.5 2.7 1.6 7.2 2.9 14.4 2 2.4-.4 6.5-1.2 11.3-2.6 1.2-.4 2.4-.8 3.7-1.2 4-1.4 7.7-2.7 11.2-3.9 3.4-1.2 7-2.4 11-3.4 7.3-2 14-3.2 21.3-3.5 3.1-.2 6.4-.4 9.9-.4h.5c-6.2-2-14.2-3.5-23.5-3.5s-18.3 1.5-26.9 4.5c-12.3 4.3-20.8 3.6-25-2.1-2.5-3.4-2.9-7.7-2.7-11.1-13.3 8.4-34.6 17.9-70.2 21.8.1.1.3.1.5.1 8.1 1.6 31.7 4.7 57.7-4.3"/><path fill="#7D94CB" d="M240.2 47.9c-25.9 9-49.5 6.1-58 4.6 3.8 1.8 12.5 5.1 23.9 4.8 15.3-.5 34.3-8.7 34.3-8.7-.1-.1-.1-.3-.1-.5-.1-.1-.1-.2-.1-.2m36.9 6.1c-8.5 3.1-15 4.2-19.9 4.2-4.8 0-8.1-1-10.4-2.3 7 5 21.1 6.9 41.4-2.4 21.5-9.9 39.8-10 39.8-10-.4 0-.8-.1-1.3-.1-16.8-.8-29.6 3.4-49.6 10.6"/><path fill="#FFF" d="M286.3 33.9c-.3 0-.5-.3-.5-.6s.3-.5.6-.5.5.3.5.6-.2.5-.6.5zm-5.6.1c-.3 0-.5-.3-.5-.6s.3-.6.6-.5c.3 0 .5.3.5.6-.1.2-.3.5-.6.5zm-5.8 0c-.3 0-.5-.3-.5-.6s.3-.6.6-.5c.3 0 .5.3.5.6 0 .2-.2.5-.6.5zm-5.7 0c-.3 0-.5-.3-.5-.6s.3-.6.6-.5c.3 0 .5.3.5.6-.1.2-.3.5-.6.5zM233 34c-.3 0-.5-.3-.5-.6s.3-.6.6-.5c.3 0 .5.3.5.6 0 .2-.3.5-.6.5z"/></svg>