<?xml version="1.0" encoding="utf-8"?>
<!-- Generator: Adobe Illustrator 24.0.1, SVG Export Plug-In . SVG Version: 6.00 Build 0)  -->
<svg version="1.1" id="Layer_1" xmlns="http://www.w3.org/2000/svg" xmlns:xlink="http://www.w3.org/1999/xlink" x="0px" y="0px"
	 viewBox="0 0 331 61" style="enable-background:new 0 0 331 61;" xml:space="preserve">
<style type="text/css">
	.st0{clip-path:url(#SVGID_2_);fill:#FFFFFF;}
	.st1{fill:#FFFFFF;}
	.st2{fill:#0E4C9D;}
</style>
<g>
	<defs>
		<path id="SVGID_1_" d="M227,33c0,1.5,0.1,3,0.3,4.5c11.6-4,19.8-8.5,25.8-12.8c0,0,3-1.9,5.1-0.8c-0.8,1.1-1.7,2.3-1.8,3.2
			c0,0-1.4,6.9,1.9,11.3c1.5,2,4.1,3,7.7,3c3.3,0,7.4-0.9,12.1-2.5s9.4-3.9,14.4-3.7V33c0-18.2-14.7-33-32.7-33
			C241.7,0,227,14.8,227,33"/>
	</defs>
	<use xlink:href="#SVGID_1_"  style="overflow:visible;fill:#FFFFFF;"/>
	<clipPath id="SVGID_2_">
		<use xlink:href="#SVGID_1_"  style="overflow:visible;"/>
	</clipPath>
	<path class="st0" d="M227,0h65.5v41.4H227V0z"/>
</g>
<path class="st1" d="M14.1,11.8v9.6H2.9v-9.6H0v23.7h2.9V24.1h11.2v11.4H17V11.8H14.1z M44.2,23.7c0,7-5.5,12.3-12.3,12.3
	s-12.3-5.3-12.3-12.3c0-6.8,5.6-12.3,12.3-12.3C38.6,11.3,44.2,16.9,44.2,23.7 M41.3,23.7c0-5.2-3.9-9.6-9.4-9.6s-9.4,4.4-9.4,9.6
	c0,5.4,4.3,9.6,9.4,9.6C37,33.2,41.3,29.1,41.3,23.7 M50,32.8h7.1v2.7H47V11.8h3V32.8z M58.8,11.8h4.9c7.2,0,13.2,3.8,13.2,11.7
	c0,8.1-5.9,12-13.3,12h-4.8C58.8,35.5,58.8,11.8,58.8,11.8z M61.7,32.8h1c6,0,11.1-2.3,11.1-9.1c0-6.9-5.2-9.1-11.1-9.1h-1
	C61.7,14.6,61.7,32.8,61.7,32.8z M82.6,14.5v6.7h8.2v2.7h-8.2v11.6h-2.9V11.8h11.4v2.7L82.6,14.5z M96,29.6l-2.7,5.9h-3.1l11.2-24.7
	l11.2,24.7h-3.1l-2.7-5.9H96z M101.4,17.3l-4.2,9.6h8.3C105.5,26.9,101.4,17.3,101.4,17.3z M125,16.3c-0.9-1.5-2-2.2-3.8-2.2
	c-1.9,0-3.9,1.3-3.9,3.4c0,1.9,1.8,2.8,3.3,3.4l1.7,0.7c3.3,1.3,5.8,3.2,5.8,7.1c0,4.3-3.3,7.4-7.5,7.4c-3.8,0-6.8-2.8-7.3-6.6
	l3-0.6c0,2.6,2,4.5,4.5,4.5s4.3-2.1,4.3-4.6s-2-3.6-4-4.5l-1.6-0.7c-2.7-1.2-5.1-2.7-5.1-6c0-3.8,3.4-6.1,6.9-6.1
	c2.6,0,4.8,1.3,6,3.6C127.3,15.1,125,16.3,125,16.3z M137.6,35.5h-2.9v-21h-5.6v-2.7h14.1v2.7h-5.6V35.5z M154.2,11.8h2.9
	c4.4,0,8.6,1.2,8.6,6.5c0,1.7-0.9,3.7-2.5,4.5v0.1c2.8,0.5,4.7,3.2,4.7,6c0,4.7-4,6.6-8.2,6.6h-5.5
	C154.2,35.5,154.2,11.8,154.2,11.8z M157.1,22.3h0.7c2.8,0,5-0.6,5-4c0-3.3-2.2-3.9-5-3.9H157v7.9H157.1z M157.1,32.9h2.2
	c2.7,0,5.5-0.8,5.5-4.2c0-3.3-3.4-4-6-4H157v8.2H157.1z M174.4,29.6l-2.7,5.9h-3.1l11.2-24.7L191,35.5h-3.1l-2.7-5.9L174.4,29.6
	L174.4,29.6z M179.8,17.3l-4.2,9.6h8.3L179.8,17.3z M187.5,11.8h3.4l5.7,10.1l5.8-10.1h3.3l-7.6,13.4v10.3h-3V25.2L187.5,11.8z
	 M82.9,3c-0.6-0.6-1.3-1-2.2-1c-1.6,0-2.9,1.4-2.9,3s1.3,3,2.9,3c0.8,0,1.6-0.4,2.2-1v1c-0.6,0.4-1.4,0.7-2.1,0.7
	c-2,0-3.7-1.6-3.7-3.7s1.7-3.7,3.7-3.7c0.8,0,1.5,0.2,2.1,0.7V3z M87.1,1.4h0.8v7.2h-0.8V1.4z M94.1,8.6h-0.8V2.2h-1.8V1.4h4.3v0.8
	h-1.7V8.6z M98.8,1.4h0.9l1.8,3.2l1.8-3.2h0.9l-2.3,4.1v3.1h-0.8V5.5L98.8,1.4z M120.6,5c0,2.1-1.7,3.7-3.7,3.7s-3.7-1.6-3.7-3.7
	s1.7-3.7,3.7-3.7C119,1.3,120.6,3,120.6,5 M114,5c0,1.6,1.3,3,2.9,3s2.9-1.4,2.9-3s-1.3-3-2.9-3C115.3,2.1,114,3.4,114,5 M125.3,2.2
	v2.1h2.4V5h-2.4v3.6h-0.8V1.4h3.3v0.8H125.3z"/>
<path class="st2" d="M259.7,7c-0.3,0-0.5-0.3-0.5-0.6s0.3-0.6,0.6-0.5c0.3,0,0.5,0.3,0.5,0.6C260.2,6.8,260,7,259.7,7z M259.7,12.8
	c-0.3,0-0.5-0.3-0.5-0.6s0.3-0.6,0.6-0.5c0.3,0,0.5,0.3,0.5,0.6C260.2,12.6,260,12.8,259.7,12.8z M259.7,18.5
	c-0.3,0-0.5-0.3-0.5-0.6s0.3-0.5,0.6-0.5s0.5,0.3,0.5,0.6C260.2,18.3,260,18.5,259.7,18.5z M259.7,24.4c-0.3,0-0.5-0.3-0.5-0.6
	s0.3-0.5,0.6-0.5s0.5,0.3,0.5,0.6C260.2,24.1,260,24.4,259.7,24.4z M286.1,36.3c-0.3-0.1-0.5-0.3-0.4-0.6c0-0.3,0.3-0.5,0.6-0.5
	s0.5,0.3,0.5,0.6c0,0.1-0.1,0.3-0.2,0.4C286.6,36.2,286.2,36.3,286.1,36.3 M285.7,31.1c0-0.3,0.2-0.6,0.5-0.6s0.6,0.2,0.6,0.5
	s-0.2,0.6-0.5,0.6S285.7,31.4,285.7,31.1 M285.4,28.8c-0.1-0.3,0.2-0.6,0.5-0.7s0.6,0.1,0.7,0.5c0.1,0.3-0.2,0.6-0.5,0.7H286
	C285.7,29.3,285.5,29.1,285.4,28.8 M284.9,26.6c-0.1-0.3,0.1-0.6,0.4-0.7s0.6,0.1,0.7,0.4s-0.1,0.6-0.4,0.7h-0.1
	C285.2,27,285,26.8,284.9,26.6 M284.2,24.4c-0.1-0.3,0-0.6,0.3-0.7s0.6,0,0.7,0.3s0,0.6-0.3,0.7h-0.2
	C284.5,24.8,284.3,24.6,284.2,24.4 M283.4,22.2c-0.1-0.3,0-0.6,0.3-0.8c0.3-0.1,0.6,0,0.8,0.3c0.1,0.3,0,0.6-0.3,0.8
	c-0.1,0-0.2,0.1-0.2,0.1C283.7,22.6,283.5,22.5,283.4,22.2 M282.3,20.2c-0.2-0.3-0.1-0.6,0.2-0.8c0.3-0.2,0.6-0.1,0.8,0.2
	c0.2,0.3,0.1,0.6-0.2,0.8c-0.1,0.1-0.2,0.1-0.3,0.1C282.6,20.5,282.4,20.4,282.3,20.2 M281.1,18.3c-0.2-0.3-0.1-0.6,0.1-0.8
	c0.3-0.2,0.6-0.1,0.8,0.1c0.2,0.3,0.1,0.6-0.1,0.8c-0.1,0.1-0.2,0.1-0.3,0.1C281.4,18.5,281.2,18.4,281.1,18.3 M279.7,16.4
	c-0.2-0.2-0.2-0.6,0.1-0.8c0.2-0.2,0.6-0.2,0.8,0.1c0.2,0.2,0.2,0.6-0.1,0.8c-0.1,0.1-0.2,0.1-0.4,0.1
	C280,16.6,279.8,16.6,279.7,16.4 M278.2,14.8c-0.2-0.2-0.2-0.6,0-0.8s0.6-0.2,0.8,0c0.2,0.2,0.2,0.6,0,0.8c-0.1,0.1-0.3,0.2-0.4,0.2
	C278.4,14.9,278.3,14.9,278.2,14.8 M276.5,13.2c-0.2-0.2-0.3-0.6-0.1-0.8c0.2-0.2,0.6-0.3,0.8-0.1c0.2,0.2,0.3,0.6,0.1,0.8
	c-0.1,0.1-0.3,0.2-0.4,0.2C276.7,13.3,276.6,13.3,276.5,13.2 M274.7,11.8c-0.3-0.2-0.3-0.5-0.1-0.8c0.2-0.3,0.5-0.3,0.8-0.1
	s0.3,0.5,0.1,0.8c-0.1,0.2-0.3,0.2-0.5,0.2C274.9,11.9,274.8,11.9,274.7,11.8 M272.8,10.6c-0.3-0.2-0.4-0.5-0.2-0.8
	c0.2-0.3,0.5-0.4,0.8-0.2s0.4,0.5,0.2,0.8c-0.1,0.2-0.3,0.3-0.5,0.3C273,10.6,272.8,10.6,272.8,10.6 M270.7,9.5
	c-0.3-0.1-0.4-0.5-0.3-0.8s0.5-0.4,0.8-0.3c0.3,0.1,0.4,0.5,0.3,0.8c-0.1,0.2-0.3,0.3-0.5,0.3H270.7 M268.6,8.6
	c-0.3-0.1-0.4-0.4-0.3-0.7c0.1-0.3,0.4-0.5,0.7-0.3c0.3,0.1,0.4,0.4,0.3,0.7c-0.1,0.2-0.3,0.4-0.5,0.4
	C268.8,8.7,268.7,8.6,268.6,8.6 M266.5,7.9c-0.3-0.1-0.5-0.4-0.4-0.7c0.1-0.3,0.4-0.5,0.7-0.4c0.3,0.1,0.5,0.4,0.4,0.7
	c-0.1,0.3-0.3,0.4-0.6,0.4H266.5 M264.2,7.4c-0.3-0.1-0.5-0.3-0.5-0.7c0.1-0.3,0.3-0.5,0.7-0.5c0.3,0.1,0.5,0.3,0.5,0.7
	C264.8,7.2,264.6,7.4,264.2,7.4C264.3,7.4,264.3,7.4,264.2,7.4 M262,7.1c-0.3,0-0.5-0.3-0.5-0.6s0.3-0.6,0.6-0.5
	c0.3,0,0.5,0.3,0.5,0.6S262.3,7.1,262,7.1z M233.1,31.6c-0.3,0-0.5-0.3-0.5-0.6s0.3-0.5,0.6-0.5s0.5,0.3,0.5,0.6
	S233.4,31.6,233.1,31.6z M233.3,29.3c-0.3-0.1-0.5-0.4-0.5-0.7c0.1-0.3,0.3-0.5,0.7-0.5c0.3,0.1,0.5,0.4,0.5,0.7
	C233.9,29.1,233.7,29.3,233.3,29.3C233.4,29.3,233.4,29.3,233.3,29.3 M233.8,27c-0.3-0.1-0.5-0.4-0.4-0.7c0.1-0.3,0.4-0.5,0.7-0.4
	s0.5,0.4,0.4,0.7c-0.1,0.3-0.3,0.4-0.5,0.4H233.8 M234.4,24.7c-0.3-0.1-0.4-0.4-0.3-0.7c0.1-0.3,0.4-0.5,0.7-0.3
	c0.3,0.1,0.4,0.4,0.3,0.7c-0.1,0.2-0.3,0.4-0.5,0.4C234.6,24.7,234.5,24.7,234.4,24.7 M235.3,22.5c-0.3-0.1-0.4-0.5-0.3-0.8
	c0.1-0.3,0.5-0.4,0.7-0.3c0.3,0.1,0.4,0.5,0.3,0.8c-0.1,0.2-0.3,0.3-0.5,0.3C235.4,22.6,235.3,22.6,235.3,22.5 M236.3,20.4
	c-0.3-0.2-0.4-0.5-0.2-0.8s0.5-0.4,0.8-0.2c0.3,0.2,0.4,0.5,0.2,0.8c-0.1,0.2-0.3,0.3-0.5,0.3C236.5,20.5,236.4,20.5,236.3,20.4
	 M237.5,18.4c-0.3-0.2-0.3-0.5-0.1-0.8s0.5-0.3,0.8-0.1c0.3,0.2,0.3,0.5,0.1,0.8c-0.1,0.2-0.3,0.2-0.5,0.2
	C237.7,18.5,237.6,18.5,237.5,18.4 M238.9,16.5c-0.2-0.2-0.3-0.6-0.1-0.8s0.6-0.3,0.8-0.1s0.3,0.6,0.1,0.8c-0.1,0.1-0.3,0.2-0.4,0.2
	C239.1,16.6,239,16.6,238.9,16.5 M240.4,14.8c-0.2-0.2-0.2-0.6,0-0.8s0.6-0.2,0.8,0s0.2,0.6,0,0.8c-0.1,0.1-0.3,0.2-0.4,0.2
	C240.7,14.9,240.5,14.9,240.4,14.8 M242.1,13.1c-0.2-0.2-0.2-0.6,0.1-0.8c0.2-0.2,0.6-0.2,0.8,0.1c0.2,0.2,0.2,0.6-0.1,0.8
	c-0.1,0.1-0.2,0.1-0.4,0.1C242.4,13.3,242.2,13.3,242.1,13.1 M243.9,11.7c-0.2-0.3-0.1-0.6,0.1-0.8c0.3-0.2,0.6-0.1,0.8,0.1
	c0.2,0.3,0.1,0.6-0.1,0.8c-0.1,0.1-0.2,0.1-0.3,0.1C244.2,11.9,244,11.8,243.9,11.7 M245.9,10.3c-0.2-0.3-0.1-0.6,0.2-0.8
	c0.3-0.1,0.6-0.1,0.8,0.2s0.1,0.6-0.2,0.8c-0.1,0.1-0.2,0.1-0.3,0.1C246.2,10.6,246,10.5,245.9,10.3 M247.9,9.2
	c-0.1-0.3,0-0.6,0.3-0.8c0.3-0.1,0.6,0,0.8,0.3c0.1,0.3,0,0.6-0.3,0.8c-0.1,0-0.2,0.1-0.2,0.1C248.2,9.5,248,9.4,247.9,9.2 M250,8.3
	c-0.1-0.3,0-0.6,0.3-0.7s0.6,0,0.7,0.3c0.1,0.3,0,0.6-0.3,0.7h-0.2C250.3,8.6,250.1,8.5,250,8.3 M252.2,7.5
	c-0.1-0.3,0.1-0.6,0.4-0.7c0.3-0.1,0.6,0.1,0.7,0.4c0.1,0.3-0.1,0.6-0.4,0.7h-0.2C252.5,7.9,252.3,7.8,252.2,7.5 M254.5,7
	c-0.1-0.3,0.2-0.6,0.5-0.7s0.6,0.1,0.7,0.5c0.1,0.3-0.2,0.6-0.5,0.7h-0.1C254.8,7.4,254.6,7.2,254.5,7 M256.8,6.6
	c0-0.3,0.2-0.6,0.5-0.6s0.6,0.2,0.6,0.5s-0.2,0.6-0.5,0.6h-0.1C257.1,7.1,256.8,6.9,256.8,6.6 M232.6,35.7c0-0.3,0.2-0.5,0.5-0.6
	c0.2,0,0.3,0.1,0.5,0.2C233.5,35.3,232.6,35.7,232.6,35.7 M238.1,33.4c0-0.3,0.2-0.5,0.5-0.6c0.2,0,0.3,0,0.4,0.1
	C239.1,33,238.1,33.4,238.1,33.4 M280.2,38.4c-0.3-0.1-0.5-0.4-0.5-0.7c0.1-0.3,0.4-0.5,0.7-0.4c0.3,0.1,0.5,0.4,0.4,0.7
	c0,0.1-0.1,0.2-0.1,0.3C280.6,38.2,280.2,38.4,280.2,38.4 M280.5,36.2c-0.3,0-0.5-0.3-0.5-0.6s0.3-0.5,0.6-0.5s0.5,0.3,0.5,0.6
	S280.9,36.2,280.5,36.2C280.6,36.2,280.5,36.2,280.5,36.2 M280,31.2c0-0.3,0.2-0.6,0.5-0.6s0.6,0.2,0.6,0.5s-0.2,0.6-0.5,0.6h-0.1
	C280.3,31.7,280.1,31.5,280,31.2 M279.7,29.1c-0.1-0.3,0.1-0.6,0.4-0.7s0.6,0.1,0.7,0.4s-0.1,0.6-0.4,0.7h-0.1
	C280,29.5,279.7,29.4,279.7,29.1 M279.1,27c-0.1-0.3,0.1-0.6,0.4-0.7s0.6,0.1,0.7,0.4s-0.1,0.6-0.4,0.7h-0.2
	C279.4,27.4,279.2,27.3,279.1,27 M278.4,25c-0.1-0.3,0-0.6,0.3-0.8c0.3-0.1,0.6,0,0.7,0.3s0,0.6-0.3,0.8c-0.1,0-0.2,0.1-0.2,0.1
	C278.7,25.3,278.5,25.2,278.4,25 M277.4,23.1c-0.2-0.3-0.1-0.6,0.2-0.8c0.3-0.2,0.6-0.1,0.8,0.2c0.2,0.3,0.1,0.6-0.2,0.8
	c-0.1,0.1-0.2,0.1-0.3,0.1C277.7,23.4,277.5,23.3,277.4,23.1 M276.2,21.3c-0.2-0.3-0.1-0.6,0.1-0.8c0.2-0.2,0.6-0.1,0.8,0.1
	c0.2,0.3,0.1,0.6-0.1,0.8c-0.1,0.1-0.2,0.1-0.3,0.1C276.5,21.5,276.3,21.4,276.2,21.3 M274.9,19.6c-0.2-0.2-0.2-0.6,0-0.8
	c0.2-0.2,0.6-0.2,0.8,0c0.2,0.2,0.2,0.6,0,0.8c-0.1,0.1-0.2,0.1-0.4,0.1C275.2,19.8,275,19.7,274.9,19.6 M273.4,18.1
	c-0.2-0.2-0.3-0.6,0-0.8c0.2-0.2,0.6-0.2,0.8,0c0.2,0.2,0.3,0.6,0,0.8c-0.1,0.1-0.3,0.2-0.4,0.2C273.6,18.2,273.5,18.2,273.4,18.1
	 M271.7,16.7c-0.3-0.2-0.3-0.5-0.1-0.8c0.2-0.3,0.5-0.3,0.8-0.1s0.3,0.5,0.1,0.8c-0.1,0.2-0.3,0.2-0.5,0.2
	C271.9,16.8,271.8,16.8,271.7,16.7 M269.9,15.5c-0.3-0.2-0.4-0.5-0.2-0.8c0.2-0.3,0.5-0.4,0.8-0.2s0.4,0.5,0.2,0.8
	c-0.1,0.2-0.3,0.3-0.5,0.3C270.1,15.6,270,15.6,269.9,15.5 M268,14.5c-0.3-0.1-0.4-0.5-0.3-0.8s0.5-0.4,0.7-0.3
	c0.3,0.1,0.4,0.5,0.3,0.8c-0.1,0.2-0.3,0.3-0.5,0.3C268.2,14.6,268.1,14.6,268,14.5 M266,13.8c-0.3-0.1-0.5-0.4-0.4-0.7
	s0.4-0.5,0.7-0.4c0.3,0.1,0.5,0.4,0.4,0.7c-0.1,0.2-0.3,0.4-0.5,0.4H266 M264,13.2c-0.3-0.1-0.5-0.4-0.4-0.7s0.4-0.5,0.7-0.4
	c0.3,0.1,0.5,0.4,0.4,0.7s-0.3,0.5-0.6,0.5L264,13.2 M261.8,12.9c-0.3,0-0.5-0.3-0.5-0.6s0.3-0.5,0.6-0.5s0.5,0.3,0.5,0.6
	S262.2,12.9,261.8,12.9z M238.7,31.7c-0.3,0-0.5-0.3-0.5-0.6s0.3-0.5,0.6-0.5s0.5,0.3,0.5,0.6S239.1,31.7,238.7,31.7z M239,29.5
	c-0.3-0.1-0.5-0.4-0.4-0.7c0.1-0.3,0.4-0.5,0.7-0.4s0.5,0.4,0.4,0.7c-0.1,0.3-0.3,0.5-0.6,0.5C239.1,29.5,239.1,29.5,239,29.5
	 M239.5,27.4c-0.3-0.1-0.5-0.4-0.4-0.7c0.1-0.3,0.4-0.5,0.7-0.4s0.5,0.4,0.4,0.7c-0.1,0.2-0.3,0.4-0.5,0.4H239.5 M240.3,25.3
	c-0.3-0.1-0.4-0.5-0.3-0.8c0.1-0.3,0.5-0.4,0.7-0.3c0.3,0.1,0.4,0.5,0.3,0.8c-0.1,0.2-0.3,0.3-0.5,0.3H240.3 M241.2,23.3
	c-0.3-0.2-0.4-0.5-0.2-0.8s0.5-0.4,0.8-0.2c0.3,0.2,0.4,0.5,0.2,0.8c-0.1,0.2-0.3,0.3-0.5,0.3C241.4,23.4,241.3,23.3,241.2,23.3
	 M242.4,21.4c-0.3-0.2-0.3-0.5-0.1-0.8s0.5-0.3,0.8-0.1c0.3,0.2,0.3,0.5,0.1,0.8c-0.1,0.2-0.3,0.2-0.5,0.2
	C242.6,21.5,242.5,21.5,242.4,21.4 M243.7,19.6c-0.2-0.2-0.3-0.6,0-0.8c0.2-0.2,0.6-0.3,0.8,0c0.2,0.2,0.2,0.6,0,0.8
	c-0.1,0.1-0.3,0.2-0.4,0.2C244,19.8,243.8,19.7,243.7,19.6 M245.2,18c-0.2-0.2-0.2-0.6,0-0.8c0.2-0.2,0.6-0.2,0.8,0s0.2,0.6,0,0.8
	c-0.1,0.1-0.2,0.2-0.4,0.2C245.5,18.2,245.3,18.1,245.2,18 M246.9,16.6c-0.2-0.3-0.1-0.6,0.1-0.8c0.3-0.2,0.6-0.1,0.8,0.1
	c0.2,0.3,0.1,0.6-0.1,0.8c-0.1,0.1-0.2,0.1-0.3,0.1C247.2,16.8,247,16.7,246.9,16.6 M248.7,15.3c-0.2-0.3-0.1-0.6,0.2-0.8
	s0.6-0.1,0.8,0.2s0.1,0.6-0.2,0.8c-0.1,0.1-0.2,0.1-0.3,0.1C249,15.6,248.8,15.5,248.7,15.3 M250.6,14.3c-0.1-0.3,0-0.6,0.3-0.8
	c0.3-0.1,0.6,0,0.7,0.3c0.1,0.3,0,0.6-0.3,0.8c-0.1,0-0.2,0.1-0.2,0.1C250.9,14.6,250.7,14.5,250.6,14.3 M252.7,13.4
	c-0.1-0.3,0.1-0.6,0.4-0.7c0.3-0.1,0.6,0.1,0.7,0.4c0.1,0.3-0.1,0.6-0.4,0.7h-0.2C253,13.8,252.7,13.6,252.7,13.4 M254.8,12.8
	c-0.1-0.3,0.1-0.6,0.4-0.7c0.3-0.1,0.6,0.1,0.7,0.4c0.1,0.3-0.1,0.6-0.4,0.7h-0.1C255.1,13.2,254.8,13,254.8,12.8 M256.9,12.4
	c0-0.3,0.2-0.6,0.5-0.6s0.6,0.2,0.6,0.5s-0.2,0.6-0.5,0.6h-0.1C257.2,12.9,257,12.7,256.9,12.4 M273.4,40.3
	c-0.3-0.1-0.4-0.5-0.3-0.8s0.5-0.4,0.8-0.3c0.3,0.1,0.4,0.5,0.3,0.8c-0.1,0.2-0.3,0.3-0.5,0.3C273.5,40.4,273.5,40.3,273.4,40.3
	 M274.2,38.3c-0.3-0.1-0.5-0.4-0.4-0.7s0.4-0.5,0.7-0.4c0.3,0.1,0.5,0.4,0.4,0.7s-0.3,0.4-0.5,0.4H274.2 M274.7,36.2
	c-0.3,0-0.5-0.3-0.5-0.6s0.3-0.5,0.6-0.5s0.5,0.3,0.5,0.6C275.4,36,275.1,36.2,274.7,36.2z M274.3,31.3c0-0.3,0.2-0.6,0.5-0.6
	s0.6,0.2,0.6,0.5s-0.2,0.6-0.5,0.6h-0.1C274.6,31.8,274.3,31.6,274.3,31.3 M273.8,29.2c-0.1-0.3,0.1-0.6,0.4-0.7s0.6,0.1,0.7,0.4
	s-0.1,0.6-0.4,0.7h-0.2C274.1,29.6,273.9,29.4,273.8,29.2 M273.1,27.2c-0.1-0.3,0-0.6,0.3-0.8c0.3-0.1,0.6,0,0.7,0.3s0,0.6-0.3,0.8
	c-0.1,0-0.2,0.1-0.2,0.1C273.4,27.6,273.2,27.4,273.1,27.2 M272.1,25.4c-0.2-0.3-0.1-0.6,0.2-0.8c0.3-0.2,0.6-0.1,0.8,0.2
	c0.2,0.3,0.1,0.6-0.2,0.8c-0.1,0.1-0.2,0.1-0.3,0.1C272.4,25.6,272.2,25.5,272.1,25.4 M270.8,23.7c-0.2-0.2-0.2-0.6,0.1-0.8
	c0.2-0.2,0.6-0.2,0.8,0.1c0.2,0.2,0.2,0.6-0.1,0.8c-0.1,0.1-0.2,0.1-0.4,0.1C271.1,23.9,270.9,23.8,270.8,23.7 M269.3,22.2
	c-0.2-0.2-0.3-0.6-0.1-0.8c0.2-0.2,0.6-0.3,0.8-0.1c0.2,0.2,0.3,0.6,0.1,0.8c-0.1,0.1-0.3,0.2-0.4,0.2S269.4,22.3,269.3,22.2
	 M267.7,20.9c-0.3-0.2-0.3-0.5-0.2-0.8c0.2-0.3,0.5-0.3,0.8-0.2c0.3,0.2,0.3,0.5,0.2,0.8c-0.1,0.2-0.3,0.3-0.5,0.3
	C267.9,21,267.8,20.9,267.7,20.9 M265.8,19.9c-0.3-0.1-0.4-0.5-0.3-0.8s0.5-0.4,0.7-0.3c0.3,0.1,0.4,0.5,0.3,0.8
	c-0.1,0.2-0.3,0.3-0.5,0.3H265.8 M263.9,19.1c-0.3-0.1-0.5-0.4-0.4-0.7c0.1-0.3,0.4-0.5,0.7-0.4c0.3,0.1,0.5,0.4,0.4,0.7
	c-0.1,0.2-0.3,0.4-0.5,0.4C264,19.2,263.9,19.1,263.9,19.1 M261.8,18.7c-0.3,0-0.5-0.3-0.5-0.6s0.3-0.5,0.6-0.5s0.5,0.3,0.5,0.6
	S262.2,18.7,261.8,18.7C261.9,18.7,261.8,18.7,261.8,18.7 M244.9,29.6c-0.3-0.1-0.5-0.4-0.4-0.7c0.1-0.3,0.4-0.5,0.7-0.4
	s0.5,0.4,0.4,0.7c-0.1,0.2-0.3,0.4-0.5,0.4H244.9 M245.6,27.5c-0.3-0.1-0.4-0.5-0.3-0.8c0.1-0.3,0.5-0.4,0.8-0.3s0.4,0.5,0.3,0.8
	c-0.1,0.2-0.3,0.3-0.5,0.3H245.6 M246.5,25.5c-0.3-0.2-0.3-0.5-0.2-0.8c0.2-0.3,0.5-0.3,0.8-0.2c0.3,0.2,0.3,0.5,0.2,0.8
	c-0.1,0.2-0.3,0.3-0.5,0.3C246.7,25.6,246.6,25.6,246.5,25.5 M247.8,23.7c-0.2-0.2-0.3-0.6-0.1-0.8c0.2-0.2,0.6-0.3,0.8-0.1
	c0.2,0.2,0.3,0.6,0.1,0.8c-0.1,0.1-0.3,0.2-0.4,0.2C248,23.9,247.9,23.8,247.8,23.7 M249.3,22.1c-0.2-0.2-0.2-0.6,0.1-0.8
	c0.2-0.2,0.6-0.2,0.8,0.1c0.2,0.2,0.2,0.6-0.1,0.8c-0.1,0.1-0.2,0.1-0.4,0.1S249.4,22.2,249.3,22.1 M251,20.7
	c-0.2-0.3-0.1-0.6,0.2-0.8c0.3-0.2,0.6-0.1,0.8,0.2c0.2,0.3,0.1,0.6-0.2,0.8c-0.1,0.1-0.2,0.1-0.3,0.1C251.2,21,251.1,20.9,251,20.7
	 M252.8,19.6c-0.1-0.3,0-0.6,0.3-0.8c0.3-0.1,0.6,0,0.8,0.3c0.1,0.3,0,0.6-0.3,0.8c-0.1,0-0.2,0.1-0.2,0.1
	C253.1,19.9,252.9,19.8,252.8,19.6 M254.9,18.7c-0.1-0.3,0.1-0.6,0.4-0.7c0.3-0.1,0.6,0.1,0.7,0.4s-0.1,0.6-0.4,0.7h-0.2
	C255.1,19.1,254.9,19,254.9,18.7 M257,18.2c0-0.3,0.2-0.6,0.5-0.6s0.6,0.2,0.6,0.5s-0.2,0.6-0.5,0.6h-0.1
	C257.2,18.7,257,18.5,257,18.2 M265.2,41.2c-0.2-0.2-0.2-0.6,0.1-0.8c0.2-0.2,0.6-0.2,0.8,0.1c0.2,0.2,0.2,0.6-0.1,0.8
	c-0.1,0.1-0.2,0.1-0.4,0.1C265.5,41.5,265.3,41.4,265.2,41.2 M266.8,39.8c-0.2-0.2-0.3-0.6-0.1-0.8c0.2-0.2,0.6-0.3,0.8-0.1
	c0.2,0.2,0.3,0.6,0.1,0.8c-0.1,0.1-0.3,0.2-0.4,0.2C267,39.9,266.9,39.9,266.8,39.8 M268,38.1c-0.3-0.1-0.4-0.5-0.3-0.8
	s0.5-0.4,0.8-0.3c0.3,0.1,0.4,0.5,0.3,0.8c-0.1,0.2-0.3,0.3-0.5,0.3H268 M268.8,36.1c-0.3-0.1-0.5-0.4-0.4-0.7s0.4-0.5,0.7-0.4
	c0.3,0.1,0.5,0.4,0.4,0.7s-0.3,0.5-0.6,0.5C268.9,36.1,268.9,36.1,268.8,36.1 M268.4,31.4c-0.1-0.3,0.1-0.6,0.4-0.7s0.6,0.1,0.7,0.4
	s-0.1,0.6-0.4,0.7H269C268.7,31.8,268.5,31.6,268.4,31.4 M267.8,29.5c-0.1-0.3,0-0.6,0.3-0.8c0.3-0.1,0.6,0,0.8,0.3
	c0.1,0.3,0,0.6-0.3,0.8c-0.1,0-0.2,0.1-0.2,0.1C268.1,29.8,267.9,29.7,267.8,29.5 M266.7,27.8c-0.2-0.2-0.2-0.6,0.1-0.8
	c0.2-0.2,0.6-0.2,0.8,0.1c0.2,0.2,0.2,0.6-0.1,0.8c-0.1,0.1-0.2,0.1-0.4,0.1C267,28,266.8,27.9,266.7,27.8 M265.3,26.3
	c-0.2-0.2-0.3-0.6-0.1-0.8c0.2-0.2,0.6-0.3,0.8-0.1c0.2,0.2,0.3,0.6,0.1,0.8c-0.1,0.1-0.3,0.2-0.4,0.2
	C265.5,26.5,265.4,26.4,265.3,26.3 M263.6,25.3c-0.3-0.1-0.4-0.5-0.3-0.8s0.5-0.4,0.8-0.3s0.4,0.5,0.3,0.8c-0.1,0.2-0.3,0.3-0.5,0.3
	H263.6 M261.7,24.6c-0.3-0.1-0.5-0.4-0.4-0.7c0.1-0.3,0.4-0.5,0.7-0.4c0.3,0.1,0.5,0.4,0.4,0.7c-0.1,0.3-0.3,0.4-0.6,0.4H261.7"/>
<path class="st1" d="M240.8,46.6l1.6-0.6l0.3,1.6c0.3,1,0.8,2.4,1.7,3.6c0.1,0.1,0.2,0.3,0.3,0.5c0.7,0.9,1.7,1.7,2.9,2.5
	c2.7,1.6,7.2,2.9,14.4,2c2.4-0.4,6.5-1.2,11.3-2.6c1.2-0.4,2.4-0.8,3.7-1.2c4-1.4,7.7-2.7,11.2-3.9c3.4-1.2,7-2.4,11-3.4
	c7.3-2,14-3.2,21.3-3.5c3.1-0.2,6.4-0.4,9.9-0.4h0.5c-6.2-2-14.2-3.5-23.5-3.5s-18.3,1.5-26.9,4.5c-12.3,4.3-20.8,3.6-25-2.1
	c-2.5-3.4-2.9-7.7-2.7-11.1c-13.3,8.4-34.6,17.9-70.2,21.8c0.1,0.1,0.3,0.1,0.5,0.1C191.2,52.5,214.8,55.6,240.8,46.6"/>
<path class="st1" d="M240.2,47.9c-25.9,9-49.5,6.1-58,4.6c3.8,1.8,12.5,5.1,23.9,4.8c15.3-0.5,34.3-8.7,34.3-8.7
	c-0.1-0.1-0.1-0.3-0.1-0.5C240.2,48,240.2,47.9,240.2,47.9 M277.1,54c-8.5,3.1-15,4.2-19.9,4.2c-4.8,0-8.1-1-10.4-2.3
	c7,5,21.1,6.9,41.4-2.4c21.5-9.9,39.8-10,39.8-10c-0.4,0-0.8-0.1-1.3-0.1C309.9,42.6,297.1,46.8,277.1,54"/>
<path class="st1" d="M286.3,33.9c-0.3,0-0.5-0.3-0.5-0.6s0.3-0.5,0.6-0.5s0.5,0.3,0.5,0.6S286.7,33.9,286.3,33.9z M280.7,34
	c-0.3,0-0.5-0.3-0.5-0.6s0.3-0.6,0.6-0.5c0.3,0,0.5,0.3,0.5,0.6C281.2,33.7,281,34,280.7,34z M274.9,34c-0.3,0-0.5-0.3-0.5-0.6
	s0.3-0.6,0.6-0.5c0.3,0,0.5,0.3,0.5,0.6C275.5,33.7,275.3,34,274.9,34z M269.2,34c-0.3,0-0.5-0.3-0.5-0.6s0.3-0.6,0.6-0.5
	c0.3,0,0.5,0.3,0.5,0.6C269.7,33.7,269.5,34,269.2,34z M233,34c-0.3,0-0.5-0.3-0.5-0.6s0.3-0.6,0.6-0.5c0.3,0,0.5,0.3,0.5,0.6
	C233.6,33.7,233.3,34,233,34z"/>
</svg>
